<?xml version="1.0" encoding="iso-8859-1"?>
<!-- Generator: Adobe Illustrator 18.0.0, SVG Export Plug-In . SVG Version: 6.00 Build 0)  -->
<!DOCTYPE svg PUBLIC "-//W3C//DTD SVG 1.1//EN" "http://www.w3.org/Graphics/SVG/1.1/DTD/svg11.dtd">
<svg version="1.1" id="Capa_1" xmlns="http://www.w3.org/2000/svg" xmlns:xlink="http://www.w3.org/1999/xlink" x="0px" y="0px"
	 viewBox="0 0 58 58" style="enable-background:new 0 0 58 58;" xml:space="preserve">
<g>
	<path style="fill:#0096E6;" d="M1,58c-0.256,0-0.512-0.098-0.707-0.293c-0.391-0.391-0.391-1.023,0-1.414l3-3
		c0.391-0.391,1.023-0.391,1.414,0s0.391,1.023,0,1.414l-3,3C1.512,57.902,1.256,58,1,58z"/>
	<path style="fill:#A98258;" d="M53.084,31.675l4.274-5.224C57.773,25.944,58,25.308,58,24.652V16H2l-0.696-2.087L3,19
		c0,0-1.365-0.738-3-1.588v13.453c0,0.653,0.226,1.288,0.638,1.795c1.236,1.519,2.357,2.891,3.159,3.872C7.286,36.781,11,37,11,37
		l-6.57,2.628L0.16,51.83C0.054,52.132,0,52.449,0,52.769v2.39C0,56.728,1.272,58,2.841,58h21.262c0.222,0,0.445-0.026,0.661-0.078
		c6.475-1.545,12.439-2.996,14.962-3.611C40.299,52.331,41,50,41,50l1.311,4.59l7.021,3.16c0.367,0.165,0.764,0.25,1.166,0.25h4.66
		C56.728,58,58,56.728,58,55.159v-7.335c0-0.379-0.076-0.754-0.223-1.103L52.664,36c-0.046-0.11-0.059-0.226-0.091-0.339L47,33
		l5.71-0.714C52.809,32.071,52.93,31.864,53.084,31.675z"/>
	<path style="fill:#DAAE86;" d="M58,16L48.984,1.574L46,2l0.4-2H12.5L12,2c0,0-1.32-0.514-2.61-1.024L1.304,13.913L2,16H58z"/>
	<rect x="23" style="fill:#F4D5BD;" width="12" height="16"/>
	<polygon style="fill:#D8B18B;" points="25,21 29,25 33,21 35,23 35,16 23,16 23,23 	"/>
</g>
<g>
</g>
<g>
</g>
<g>
</g>
<g>
</g>
<g>
</g>
<g>
</g>
<g>
</g>
<g>
</g>
<g>
</g>
<g>
</g>
<g>
</g>
<g>
</g>
<g>
</g>
<g>
</g>
<g>
</g>
</svg>
