<?xml version="1.0" encoding="iso-8859-1"?>
<!-- Generator: Adobe Illustrator 18.0.0, SVG Export Plug-In . SVG Version: 6.00 Build 0)  -->
<!DOCTYPE svg PUBLIC "-//W3C//DTD SVG 1.1//EN" "http://www.w3.org/Graphics/SVG/1.1/DTD/svg11.dtd">
<svg version="1.1" id="Capa_1" xmlns="http://www.w3.org/2000/svg" xmlns:xlink="http://www.w3.org/1999/xlink" x="0px" y="0px"
	 viewBox="0 0 58 58" style="enable-background:new 0 0 58 58;" xml:space="preserve">
<g>
	<path style="fill:#556080;" d="M58,38.5H8v-26h50V38.5z M10,36.5h46v-22H10V36.5z"/>
	<path style="fill:#556080;" d="M9,5.5H4c-0.552,0-1-0.447-1-1s0.448-1,1-1h5c0.552,0,1,0.447,1,1S9.552,5.5,9,5.5z"/>
	<path style="fill:#556080;" d="M9,14.5c-0.552,0-1-0.447-1-1v-9c0-0.553,0.448-1,1-1s1,0.447,1,1v9C10,14.053,9.552,14.5,9,14.5z"
		/>
	<path style="fill:#556080;" d="M9,48.5c-0.552,0-1-0.447-1-1v-10c0-0.553,0.448-1,1-1s1,0.447,1,1v10C10,48.053,9.552,48.5,9,48.5z
		"/>
	<circle style="fill:#A5A5A4;" cx="19" cy="52.5" r="4"/>
	<circle style="fill:#A5A5A4;" cx="43" cy="52.5" r="4"/>
	<path style="fill:#556080;" d="M52,48.5H9c-0.552,0-1-0.447-1-1s0.448-1,1-1h43c0.552,0,1,0.447,1,1S52.552,48.5,52,48.5z"/>
	<path style="fill:#556080;" d="M57,22.5H9c-0.552,0-1-0.447-1-1s0.448-1,1-1h48c0.552,0,1,0.447,1,1S57.552,22.5,57,22.5z"/>
	<path style="fill:#556080;" d="M57,30.5H9c-0.552,0-1-0.447-1-1s0.448-1,1-1h48c0.552,0,1,0.447,1,1S57.552,30.5,57,30.5z"/>
	<path style="fill:#556080;" d="M17,38.5c-0.552,0-1-0.447-1-1v-24c0-0.553,0.448-1,1-1s1,0.447,1,1v24
		C18,38.053,17.552,38.5,17,38.5z"/>
	<path style="fill:#556080;" d="M25,38.5c-0.552,0-1-0.447-1-1v-24c0-0.553,0.448-1,1-1s1,0.447,1,1v24
		C26,38.053,25.552,38.5,25,38.5z"/>
	<path style="fill:#556080;" d="M33,38.5c-0.552,0-1-0.447-1-1v-24c0-0.553,0.448-1,1-1s1,0.447,1,1v24
		C34,38.053,33.552,38.5,33,38.5z"/>
	<path style="fill:#556080;" d="M41,38.5c-0.552,0-1-0.447-1-1v-24c0-0.553,0.448-1,1-1s1,0.447,1,1v24
		C42,38.053,41.552,38.5,41,38.5z"/>
	<path style="fill:#556080;" d="M49,38.5c-0.552,0-1-0.447-1-1v-24c0-0.553,0.448-1,1-1s1,0.447,1,1v24
		C50,38.053,49.552,38.5,49,38.5z"/>
	<path style="fill:#556080;" d="M57,38.5c-0.552,0-1-0.447-1-1v-24c0-0.553,0.448-1,1-1s1,0.447,1,1v24
		C58,38.053,57.552,38.5,57,38.5z"/>
	<circle style="fill:#E64C3C;" cx="3" cy="4.5" r="3"/>
</g>
<g>
</g>
<g>
</g>
<g>
</g>
<g>
</g>
<g>
</g>
<g>
</g>
<g>
</g>
<g>
</g>
<g>
</g>
<g>
</g>
<g>
</g>
<g>
</g>
<g>
</g>
<g>
</g>
<g>
</g>
</svg>
