<?xml version="1.0" encoding="iso-8859-1"?>
<!-- Generator: Adobe Illustrator 19.0.0, SVG Export Plug-In . SVG Version: 6.00 Build 0)  -->
<svg version="1.1" id="Capa_1" xmlns="http://www.w3.org/2000/svg" xmlns:xlink="http://www.w3.org/1999/xlink" x="0px" y="0px"
	 viewBox="0 0 58 58" style="enable-background:new 0 0 58 58;" xml:space="preserve">
<g id="XMLID_1_">
	<path id="XMLID_108_" style="fill:#C7A06B;" d="M53.614,53H4.386C3.621,53,3,52.379,3,51.614V40.386C3,39.621,3.621,39,4.386,39
		h49.229C54.38,39,55,39.621,55,40.386v11.228C55,52.379,54.38,53,53.614,53"/>
	<path id="XMLID_107_" style="fill:#645D5A;" d="M47,58H11c-2.761,0-5-2.239-5-5h46C52,55.761,49.761,58,47,58"/>
	<rect id="XMLID_106_" x="21" y="33" style="fill:#DFB288;" width="16" height="6"/>
	<path id="XMLID_105_" style="fill:#FAC176;" d="M40,11c0-6.501-5.639-11.685-12.293-10.926c-4.918,0.561-8.941,4.489-9.604,9.394
		c-0.55,4.07,1.131,7.775,3.988,10.082C23.999,21.089,25,23.491,25,25.941V33h8v-7.242c0-2.37,0.989-4.682,2.844-6.157
		C38.375,17.588,40,14.486,40,11"/>
</g>
<g>
</g>
<g>
</g>
<g>
</g>
<g>
</g>
<g>
</g>
<g>
</g>
<g>
</g>
<g>
</g>
<g>
</g>
<g>
</g>
<g>
</g>
<g>
</g>
<g>
</g>
<g>
</g>
<g>
</g>
</svg>
