<?xml version="1.0" encoding="iso-8859-1"?>
<!-- Generator: Adobe Illustrator 18.0.0, SVG Export Plug-In . SVG Version: 6.00 Build 0)  -->
<!DOCTYPE svg PUBLIC "-//W3C//DTD SVG 1.1//EN" "http://www.w3.org/Graphics/SVG/1.1/DTD/svg11.dtd">
<svg version="1.1" id="Capa_1" xmlns="http://www.w3.org/2000/svg" xmlns:xlink="http://www.w3.org/1999/xlink" x="0px" y="0px"
	 viewBox="0 0 58 58" style="enable-background:new 0 0 58 58;" xml:space="preserve">
<g>
	<polygon style="fill:#CBB292;" points="0,13 0,30 0,58 58,58 58,30 58,13 	"/>
	<g>
		<rect x="2" y="13" style="fill:#90BAE1;" width="10" height="36"/>
		<path style="fill:#ECF0F1;" d="M10,15v32H4V15H10 M12,13H2v36h10V13L12,13z"/>
	</g>
	<g>
		<rect x="34" y="13" style="fill:#90BAE1;" width="21" height="36"/>
		<path style="fill:#ECF0F1;" d="M53,15v32H36V15H53 M55,13H34v36h21V13L55,13z"/>
	</g>
	<rect x="14" y="13" style="fill:#ECF0F1;" width="16" height="45"/>
	<rect x="16" y="36" style="fill:#90BAE1;" width="12" height="20"/>
	<g>
		<path style="fill:#FFFFFF;" d="M40,32c0.256,0,0.512-0.098,0.707-0.293l4-4c0.391-0.391,0.391-1.023,0-1.414s-1.023-0.391-1.414,0
			l-4,4c-0.391,0.391-0.391,1.023,0,1.414C39.488,31.902,39.744,32,40,32z"/>
		<path style="fill:#FFFFFF;" d="M40,37c0.256,0,0.512-0.098,0.707-0.293l2-2c0.391-0.391,0.391-1.023,0-1.414s-1.023-0.391-1.414,0
			l-2,2c-0.391,0.391-0.391,1.023,0,1.414C39.488,36.902,39.744,37,40,37z"/>
		<path style="fill:#FFFFFF;" d="M43.29,31.29C43.109,31.479,43,31.729,43,32c0,0.26,0.109,0.52,0.29,0.71
			C43.479,32.89,43.74,33,44,33s0.52-0.11,0.71-0.29C44.89,32.52,45,32.26,45,32s-0.11-0.521-0.29-0.71
			C44.33,30.92,43.66,30.92,43.29,31.29z"/>
		<path style="fill:#FFFFFF;" d="M45.293,30.707C45.488,30.902,45.744,31,46,31s0.512-0.098,0.707-0.293l3-3
			c0.391-0.391,0.391-1.023,0-1.414s-1.023-0.391-1.414,0l-3,3C44.902,29.684,44.902,30.316,45.293,30.707z"/>
		<path style="fill:#FFFFFF;" d="M48.293,31.293l-9,9c-0.391,0.391-0.391,1.023,0,1.414C39.488,41.902,39.744,42,40,42
			s0.512-0.098,0.707-0.293l9-9c0.391-0.391,0.391-1.023,0-1.414S48.684,30.902,48.293,31.293z"/>
		<path style="fill:#FFFFFF;" d="M51.71,29.29c-0.37-0.37-1.04-0.37-1.42,0C50.109,29.479,50,29.729,50,30
			c0,0.26,0.109,0.52,0.29,0.71C50.479,30.89,50.74,31,51,31c0.27,0,0.52-0.11,0.71-0.29C51.89,30.52,52,30.26,52,30
			C52,29.729,51.89,29.479,51.71,29.29z"/>
	</g>
	<rect y="52" style="fill:#7F6E5D;" width="14" height="6"/>
	<rect x="30" y="52" style="fill:#7F6E5D;" width="28" height="6"/>
	<rect x="4" y="52" style="fill:#5E5146;" width="2" height="6"/>
	<rect x="8" y="52" style="fill:#5E5146;" width="2" height="6"/>
	<rect x="34" y="52" style="fill:#5E5146;" width="2" height="6"/>
	<rect x="38" y="52" style="fill:#5E5146;" width="2" height="6"/>
	<rect x="42" y="52" style="fill:#5E5146;" width="2" height="6"/>
	<rect x="46" y="52" style="fill:#5E5146;" width="2" height="6"/>
	<rect x="50" y="52" style="fill:#5E5146;" width="2" height="6"/>
	<rect x="54" y="52" style="fill:#5E5146;" width="2" height="6"/>
	<path style="fill:#90BAE1;" d="M22,20c-2.378,0-4.475-1.188-5.74-3H16v17h12V17h-0.26C26.475,18.812,24.378,20,22,20z"/>
	<path style="fill:#E64C3C;" d="M17,0h-2.976H14v0.001C7.502,0.012,1.839,4.372,0.104,10.637C-0.109,11.406,0.188,11,0.378,11H14h1
		h14V0H17z"/>
	<path style="fill:#F3D55B;" d="M45,11h12.645c0.178,0,0.401,0.172,0.257-0.341l-0.006-0.023C56.277,4.689,51.075,0.473,45,0.043V0
		h-1.024H41H29v11h14H45z"/>
	<path style="fill:#F3D55B;" d="M29,11H15l0,0c1.158-6.37,6.706-11,13.18-11H29V11z"/>
	<path style="fill:#E64C3C;" d="M43,11H29V0h0.82C36.294,0,41.842,4.63,43,11L43,11z"/>
	<path style="fill:#C03A2B;" d="M8,20H7c-3.866,0-7-3.134-7-7l0-1.84C0,11.072,0.072,11,0.16,11H15v2C15,16.866,11.866,20,8,20z"/>
	<path style="fill:#DDC357;" d="M22,20L22,20c-3.866,0-7-3.134-7-7v-2h14v2C29,16.866,25.866,20,22,20z"/>
	<path style="fill:#C03A2B;" d="M36,20L36,20c-3.866,0-7-3.134-7-7v-2h14v2C43,16.866,39.866,20,36,20z"/>
	<path style="fill:#DDC357;" d="M51,20h-1c-3.866,0-7-3.134-7-7v-2h14.84c0.088,0,0.16,0.072,0.16,0.16V13
		C58,16.866,54.866,20,51,20z"/>
</g>
<g>
</g>
<g>
</g>
<g>
</g>
<g>
</g>
<g>
</g>
<g>
</g>
<g>
</g>
<g>
</g>
<g>
</g>
<g>
</g>
<g>
</g>
<g>
</g>
<g>
</g>
<g>
</g>
<g>
</g>
</svg>
