<?xml version="1.0" encoding="iso-8859-1"?>
<!-- Generator: Adobe Illustrator 18.0.0, SVG Export Plug-In . SVG Version: 6.00 Build 0)  -->
<!DOCTYPE svg PUBLIC "-//W3C//DTD SVG 1.1//EN" "http://www.w3.org/Graphics/SVG/1.1/DTD/svg11.dtd">
<svg version="1.1" id="Capa_1" xmlns="http://www.w3.org/2000/svg" xmlns:xlink="http://www.w3.org/1999/xlink" x="0px" y="0px"
	 viewBox="0 0 60 60" style="enable-background:new 0 0 60 60;" xml:space="preserve">
<g>
	<rect x="1" y="0.5" style="fill:#556080;" width="58" height="6"/>
	<rect x="3" y="6.5" style="fill:#ECF0F1;" width="54" height="42"/>
	<path style="fill:#D8625E;" d="M54,26.474H41.026V13.5h0C48.191,13.5,54,19.309,54,26.474L54,26.474z"/>
	<path style="fill:#26B99A;" d="M37.974,16.553C30.809,16.553,25,22.361,25,29.526S30.809,42.5,37.974,42.5
		s12.974-5.809,12.974-12.974H37.974V16.553z"/>
	<path style="fill:#FFFFFF;" d="M14,26.5H6c-0.552,0-1-0.447-1-1s0.448-1,1-1h8c0.552,0,1,0.447,1,1S14.552,26.5,14,26.5z"/>
	<path style="fill:#FFFFFF;" d="M8,22.5c-0.552,0-1-0.447-1-1v-4c0-0.553,0.448-1,1-1s1,0.447,1,1v4C9,22.053,8.552,22.5,8,22.5z"/>
	<path style="fill:#FFFFFF;" d="M11,22.5c-0.552,0-1-0.447-1-1v-4c0-0.553,0.448-1,1-1s1,0.447,1,1v4C12,22.053,11.552,22.5,11,22.5
		z"/>
	<path style="fill:#FFFFFF;" d="M19.001,35.5c-0.352,0-0.692-0.186-0.875-0.515l-5-9c-0.269-0.482-0.094-1.091,0.388-1.359
		c0.483-0.27,1.092-0.094,1.36,0.389l5,9c0.269,0.482,0.094,1.091-0.388,1.359C19.332,35.46,19.165,35.5,19.001,35.5z"/>
	<path style="fill:#FFFFFF;" d="M31,35.5H19c-0.552,0-1-0.447-1-1s0.448-1,1-1h12c0.552,0,1,0.447,1,1S31.552,35.5,31,35.5z"/>
	<path style="fill:#556080;" d="M59,49.5H1c-0.552,0-1-0.447-1-1s0.448-1,1-1h58c0.552,0,1,0.447,1,1S59.552,49.5,59,49.5z"/>
	<path style="fill:#556080;" d="M30,52.5c-0.552,0-1-0.447-1-1v-3c0-0.553,0.448-1,1-1s1,0.447,1,1v3C31,52.053,30.552,52.5,30,52.5
		z"/>
	<path style="fill:#556080;" d="M30,59.5c-2.206,0-4-1.794-4-4s1.794-4,4-4s4,1.794,4,4S32.206,59.5,30,59.5z M30,53.5
		c-1.103,0-2,0.897-2,2s0.897,2,2,2s2-0.897,2-2S31.103,53.5,30,53.5z"/>
</g>
<g>
</g>
<g>
</g>
<g>
</g>
<g>
</g>
<g>
</g>
<g>
</g>
<g>
</g>
<g>
</g>
<g>
</g>
<g>
</g>
<g>
</g>
<g>
</g>
<g>
</g>
<g>
</g>
<g>
</g>
</svg>
