<?xml version="1.0" encoding="iso-8859-1"?>
<!-- Generator: Adobe Illustrator 19.0.0, SVG Export Plug-In . SVG Version: 6.00 Build 0)  -->
<svg version="1.1" id="Capa_1" xmlns="http://www.w3.org/2000/svg" xmlns:xlink="http://www.w3.org/1999/xlink" x="0px" y="0px"
	 viewBox="0 0 58 58" style="enable-background:new 0 0 58 58;" xml:space="preserve">
<g id="XMLID_67_">
	<path id="XMLID_118_" style="fill:#D5B89A;" d="M54.783,50H3.217C1.44,50,0,48.56,0,46.783V11.217C0,9.44,1.44,8,3.217,8h51.566
		C56.56,8,58,9.44,58,11.217v35.566C58,48.56,56.56,50,54.783,50"/>
	<path id="XMLID_117_" style="fill:#E74C3D;" d="M46,20c0,3.314-2.686,6-6,6c-3.315,0-6-2.686-6-6s2.685-6,6-6
		C43.314,14,46,16.686,46,20"/>
	<path id="XMLID_116_" style="fill:#F0C41B;" d="M53,20c0,3.314-2.686,6-6,6s-6-2.686-6-6s2.686-6,6-6S53,16.686,53,20"/>
	<path id="XMLID_115_" style="fill:#E4D6B6;" d="M14,15H5c-0.553,0-1,0.448-1,1s0.447,1,1,1h9c0.553,0,1-0.448,1-1S14.553,15,14,15"
		/>
	<path id="XMLID_114_" style="fill:#E4D6B6;" d="M28,16c0-0.552-0.447-1-1-1h-9c-0.553,0-1,0.448-1,1s0.447,1,1,1h9
		C27.553,17,28,16.552,28,16"/>
	<path id="XMLID_113_" style="fill:#E4D6B6;" d="M6,20H5c-0.553,0-1,0.448-1,1s0.447,1,1,1h1c0.553,0,1-0.448,1-1S6.553,20,6,20"/>
	<path id="XMLID_112_" style="fill:#E4D6B6;" d="M12,20h-2c-0.553,0-1,0.448-1,1s0.447,1,1,1h2c0.553,0,1-0.448,1-1S12.553,20,12,20
		"/>
	<path id="XMLID_111_" style="fill:#E4D6B6;" d="M17,20h-1c-0.553,0-1,0.448-1,1s0.447,1,1,1h1c0.553,0,1-0.448,1-1S17.553,20,17,20
		"/>
	<path id="XMLID_110_" style="fill:#E4D6B6;" d="M23,20h-2c-0.553,0-1,0.448-1,1s0.447,1,1,1h2c0.553,0,1-0.448,1-1S23.553,20,23,20
		"/>
	<path id="XMLID_109_" style="fill:#E4D6B6;" d="M26.3,20.29C26.109,20.48,26,20.73,26,21s0.109,0.52,0.29,0.71
		C26.479,21.89,26.74,22,27,22c0.26,0,0.519-0.11,0.71-0.29C27.89,21.52,28,21.26,28,21c0-0.26-0.11-0.52-0.29-0.7
		C27.34,19.92,26.66,19.92,26.3,20.29"/>
	<rect id="XMLID_108_" x="5" y="37" style="fill:#665248;" width="9" height="6"/>
	<rect id="XMLID_107_" x="18" y="37" style="fill:#665248;" width="9" height="6"/>
	<rect id="XMLID_106_" x="31" y="37" style="fill:#665248;" width="9" height="6"/>
	<rect id="XMLID_105_" x="44" y="37" style="fill:#665248;" width="9" height="6"/>
</g>
<g>
</g>
<g>
</g>
<g>
</g>
<g>
</g>
<g>
</g>
<g>
</g>
<g>
</g>
<g>
</g>
<g>
</g>
<g>
</g>
<g>
</g>
<g>
</g>
<g>
</g>
<g>
</g>
<g>
</g>
</svg>
