<?xml version="1.0" encoding="iso-8859-1"?>
<!-- Generator: Adobe Illustrator 18.0.0, SVG Export Plug-In . SVG Version: 6.00 Build 0)  -->
<!DOCTYPE svg PUBLIC "-//W3C//DTD SVG 1.1//EN" "http://www.w3.org/Graphics/SVG/1.1/DTD/svg11.dtd">
<svg version="1.1" id="Capa_1" xmlns="http://www.w3.org/2000/svg" xmlns:xlink="http://www.w3.org/1999/xlink" x="0px" y="0px"
	 viewBox="0 0 57 57" style="enable-background:new 0 0 57 57;" xml:space="preserve">
<g>
	<path style="fill:#FFAEC9;" d="M50.229,16.531l-0.208,1.509c-0.406,2.949-2.795,4.186-3.838,6.974l-0.56,1.497
		c-1.418-3.47-3.856-6.411-6.946-8.452c3.184-1.638,5.87-3.468,9.579-3.832l0.707-0.069c-2.94-4.914-7.301-7.349-12.433-8.425
		C36.83,6.602,37,7.53,37,8.5c0,0.713-0.101,1.401-0.271,2.06c-2.509-1.345-5.531-2.114-8.656-2.114c-0.006,0-0.012,0-0.017,0
		c-2.882,0.002-5.565,0.624-7.866,1.789C20.071,9.675,20,9.097,20,8.5c0-0.97,0.17-1.898,0.47-2.767
		c-5.133,1.076-9.493,3.511-12.433,8.425l0.707,0.069c3.709,0.363,6.395,2.193,9.579,3.832c-3.09,2.041-5.528,4.982-6.946,8.452
		l-0.56-1.497c-1.043-2.788-3.432-4.025-3.838-6.974l-0.208-1.509C5.004,20.261,4,24.5,4,29c0,8.43,3.507,15.956,9,20.907v-6.326
		c2.327,3.571,5.845,6.295,10,7.588v4.14C24.769,55.756,26.608,56,28.5,56s3.731-0.244,5.5-0.692v-4.14
		c4.155-1.292,7.673-4.017,10-7.588v6.326C49.493,44.956,53,37.43,53,29C53,24.5,51.996,20.261,50.229,16.531z"/>
	<circle style="fill:#F9C7DB;" cx="28.5" cy="33.5" r="18.5"/>
	<path style="fill:#E584A4;" d="M34,51.169v5.523C34,56.862,34.138,57,34.308,57h7.5C43.019,57,44,56.019,44,54.809V43.581
		C41.673,47.152,38.155,49.876,34,51.169z"/>
	<path style="fill:#E584A4;" d="M13,43.581v11.405C13,56.098,13.902,57,15.014,57h7.664C22.856,57,23,56.856,23,56.678v-5.509
		C18.845,49.876,15.327,47.152,13,43.581z"/>
	<path style="fill:#E584A4;" d="M48.257,14.227c-3.709,0.363-6.395,2.193-9.579,3.832c3.09,2.041,5.528,4.982,6.946,8.452
		l0.56-1.497c1.043-2.788,3.432-4.025,3.838-6.974L50.577,14L48.257,14.227z"/>
	<path style="fill:#E584A4;" d="M11.376,26.511c1.418-3.47,3.856-6.411,6.946-8.452c-3.184-1.638-5.87-3.468-9.579-3.832L6.423,14
		l0.556,4.04c0.406,2.949,2.795,4.186,3.838,6.974L11.376,26.511z"/>
	<circle style="fill:#E584A4;" cx="29" cy="40" r="8"/>
	<path style="fill:#556080;" d="M25,26.5c0,0.825-0.675,1.5-1.5,1.5S22,27.325,22,26.5s0.675-1.5,1.5-1.5S25,25.675,25,26.5z
		 M34.5,25c-0.825,0-1.5,0.675-1.5,1.5s0.675,1.5,1.5,1.5s1.5-0.675,1.5-1.5S35.325,25,34.5,25z"/>
	<path style="fill:#FFAEC9;" d="M28,39.5c0,0.825-0.675,1.5-1.5,1.5S25,40.325,25,39.5s0.675-1.5,1.5-1.5S28,38.675,28,39.5z
		 M31.5,38c-0.825,0-1.5,0.675-1.5,1.5s0.675,1.5,1.5,1.5s1.5-0.675,1.5-1.5S32.325,38,31.5,38z"/>
	<path style="fill:#F4BF19;" d="M20.461,11.237C20.167,10.377,20,9.459,20,8.5C20,3.806,23.806,0,28.5,0S37,3.806,37,8.5
		c0,1.069-0.21,2.086-0.573,3.027c-1.994-1.104-4.352-1.815-6.842-2.019C28.795,9.422,28,9.414,27.208,9.477
		c-1.75,0.082-3.429,0.397-4.994,0.97C21.598,10.672,21.021,10.944,20.461,11.237z"/>
</g>
<g>
</g>
<g>
</g>
<g>
</g>
<g>
</g>
<g>
</g>
<g>
</g>
<g>
</g>
<g>
</g>
<g>
</g>
<g>
</g>
<g>
</g>
<g>
</g>
<g>
</g>
<g>
</g>
<g>
</g>
</svg>
