<?xml version="1.0" encoding="iso-8859-1"?>
<!-- Generator: Adobe Illustrator 18.0.0, SVG Export Plug-In . SVG Version: 6.00 Build 0)  -->
<!DOCTYPE svg PUBLIC "-//W3C//DTD SVG 1.1//EN" "http://www.w3.org/Graphics/SVG/1.1/DTD/svg11.dtd">
<svg version="1.1" id="Capa_1" xmlns="http://www.w3.org/2000/svg" xmlns:xlink="http://www.w3.org/1999/xlink" x="0px" y="0px"
	 viewBox="0 0 58 58" style="enable-background:new 0 0 58 58;" xml:space="preserve">
<g>
	<path style="fill:#948677;" d="M38.245,34H34v-6H24v6h-4.245C11.005,34,3.596,28.306,1,20.425v29.959
		c0,1.555,1.058,2.91,2.567,3.288l9.43,2.358c10.507,2.627,21.499,2.627,32.005,0l9.43-2.358C55.942,53.295,57,51.94,57,50.385
		V20.425C54.404,28.306,46.995,34,38.245,34z"/>
	<path style="fill:#977956;" d="M36,5.444V8h4V5.889C40,2.636,37.364,0,34.111,0H23.889C20.636,0,18,2.636,18,5.889V8h4V5.444
		c0-1.113,1.13-1.869,2.159-1.444c3.1,1.281,6.582,1.281,9.682,0C34.87,3.575,36,4.331,36,5.444z"/>
	<path style="fill:#8D5538;" d="M0,11v3.245C0,25.156,8.845,34,19.755,34H24h10h4.245C49.156,34,58,25.156,58,14.245V11H0z"/>
	<rect x="16" y="8" style="fill:#FFD16C;" width="8" height="3"/>
	<rect x="34" y="8" style="fill:#FFD16C;" width="8" height="3"/>
	<g>
		<path style="fill:#72422D;" d="M16.616,30.687c-0.066,0-0.134-0.007-0.201-0.021c-0.34-0.069-0.676-0.148-1.008-0.237
			c-0.533-0.144-0.85-0.692-0.706-1.226c0.145-0.533,0.695-0.847,1.226-0.706c0.293,0.079,0.588,0.148,0.889,0.21
			c0.541,0.11,0.89,0.639,0.779,1.18C17.498,30.36,17.081,30.687,16.616,30.687z M12.07,28.999c-0.165,0-0.333-0.041-0.487-0.128
			c-0.303-0.169-0.599-0.347-0.889-0.534c-0.464-0.299-0.598-0.918-0.298-1.382c0.298-0.465,0.917-0.598,1.382-0.298
			c0.255,0.164,0.516,0.32,0.781,0.47c0.482,0.27,0.654,0.879,0.384,1.36C12.761,28.815,12.421,28.999,12.07,28.999z M8.251,26.01
			c-0.267,0-0.532-0.106-0.729-0.315c-0.236-0.253-0.465-0.512-0.686-0.777c-0.352-0.425-0.293-1.056,0.133-1.408
			c0.425-0.354,1.055-0.293,1.408,0.133c0.193,0.234,0.395,0.462,0.604,0.684c0.378,0.403,0.357,1.036-0.045,1.414
			C8.742,25.92,8.496,26.01,8.251,26.01z M5.514,22.009c-0.373,0-0.73-0.209-0.902-0.567c-0.149-0.312-0.289-0.628-0.419-0.949
			c-0.207-0.512,0.04-1.095,0.552-1.302c0.513-0.208,1.095,0.04,1.302,0.552c0.114,0.282,0.236,0.56,0.368,0.834
			c0.239,0.498,0.029,1.095-0.469,1.334C5.806,21.978,5.658,22.009,5.514,22.009z M4.124,17.363c-0.491,0-0.919-0.361-0.989-0.861
			c-0.048-0.342-0.084-0.688-0.108-1.035c-0.04-0.551,0.374-1.03,0.925-1.069c0.547-0.045,1.029,0.373,1.069,0.925
			c0.022,0.303,0.053,0.604,0.095,0.902c0.077,0.547-0.305,1.053-0.852,1.129C4.217,17.36,4.17,17.363,4.124,17.363z"/>
		<path style="fill:#72422D;" d="M21,31h-0.5c-0.553,0-1-0.447-1-1s0.447-1,1-1H21c0.553,0,1,0.447,1,1S21.553,31,21,31z"/>
	</g>
	<g>
		<path style="fill:#72422D;" d="M37.5,31H37c-0.553,0-1-0.447-1-1s0.447-1,1-1h0.5c0.553,0,1,0.447,1,1S38.053,31,37.5,31z"/>
		<path style="fill:#72422D;" d="M41.376,30.688c-0.466,0-0.884-0.327-0.979-0.802c-0.109-0.542,0.241-1.069,0.782-1.179
			c0.298-0.06,0.593-0.129,0.883-0.208c0.529-0.146,1.082,0.168,1.228,0.702c0.146,0.532-0.169,1.082-0.702,1.228
			c-0.333,0.091-0.671,0.17-1.012,0.239C41.508,30.682,41.441,30.688,41.376,30.688z M45.924,29.002
			c-0.351,0-0.69-0.184-0.873-0.512c-0.271-0.481-0.099-1.091,0.384-1.36c0.266-0.149,0.527-0.307,0.783-0.471
			c0.467-0.301,1.084-0.164,1.382,0.3c0.299,0.465,0.164,1.084-0.3,1.382c-0.291,0.188-0.586,0.364-0.889,0.533
			C46.257,28.961,46.089,29.002,45.924,29.002z M49.743,26.015c-0.245,0-0.491-0.09-0.685-0.271
			c-0.402-0.378-0.423-1.011-0.045-1.414c0.208-0.222,0.41-0.45,0.605-0.685c0.352-0.423,0.983-0.483,1.408-0.129
			c0.425,0.354,0.482,0.983,0.129,1.408c-0.221,0.266-0.448,0.523-0.684,0.774C50.275,25.908,50.01,26.015,49.743,26.015z
			 M52.482,22.017c-0.145,0-0.291-0.031-0.431-0.098c-0.498-0.238-0.709-0.836-0.471-1.334c0.131-0.273,0.254-0.552,0.368-0.834
			c0.208-0.513,0.793-0.758,1.303-0.551c0.512,0.208,0.759,0.791,0.551,1.303c-0.13,0.319-0.269,0.635-0.417,0.945
			C53.214,21.807,52.855,22.017,52.482,22.017z M53.875,17.372c-0.044,0-0.089-0.003-0.135-0.009
			c-0.547-0.074-0.931-0.577-0.857-1.125c0.04-0.299,0.072-0.602,0.095-0.906c0.04-0.551,0.529-0.959,1.069-0.925
			c0.551,0.039,0.965,0.519,0.925,1.069c-0.024,0.346-0.061,0.689-0.106,1.029C54.798,17.008,54.368,17.372,53.875,17.372z"/>
	</g>
	<rect x="24" y="16" style="fill:#FFD16C;" width="10" height="4"/>
	<path style="fill:#7A6D61;" d="M28,34v23.985c0.667,0.01,1.333,0.01,2,0V34H28z"/>
	<path style="fill:#7A6D61;" d="M53,53.03c-0.553,0-1-0.447-1-1v-1c0-0.553,0.447-1,1-1s1,0.447,1,1v1
		C54,52.583,53.553,53.03,53,53.03z M53,48.03c-0.553,0-1-0.447-1-1v-1c0-0.553,0.447-1,1-1s1,0.447,1,1v1
		C54,47.583,53.553,48.03,53,48.03z M53,43.03c-0.553,0-1-0.447-1-1v-1c0-0.553,0.447-1,1-1s1,0.447,1,1v1
		C54,42.583,53.553,43.03,53,43.03z M53,38.03c-0.553,0-1-0.447-1-1v-1c0-0.553,0.447-1,1-1s1,0.447,1,1v1
		C54,37.583,53.553,38.03,53,38.03z M53,33.03c-0.553,0-1-0.447-1-1v-1c0-0.553,0.447-1,1-1s1,0.447,1,1v1
		C54,32.583,53.553,33.03,53,33.03z"/>
	<path style="fill:#7A6D61;" d="M5,52.35c-0.553,0-1-0.447-1-1v-1c0-0.553,0.447-1,1-1s1,0.447,1,1v1C6,51.902,5.553,52.35,5,52.35z
		 M5,47.35c-0.553,0-1-0.447-1-1v-1c0-0.553,0.447-1,1-1s1,0.447,1,1v1C6,46.902,5.553,47.35,5,47.35z M5,42.35
		c-0.553,0-1-0.447-1-1v-1c0-0.553,0.447-1,1-1s1,0.447,1,1v1C6,41.902,5.553,42.35,5,42.35z M5,37.35c-0.553,0-1-0.447-1-1v-1
		c0-0.553,0.447-1,1-1s1,0.447,1,1v1C6,36.902,5.553,37.35,5,37.35z M5,32.35c-0.553,0-1-0.447-1-1v-1c0-0.553,0.447-1,1-1
		s1,0.447,1,1v1C6,31.902,5.553,32.35,5,32.35z"/>
	<rect x="25.958" y="30" style="fill:#B19046;" width="6" height="7.583"/>
	<path style="fill:#E4C05C;" d="M24,28v11h10V28H24z M31,33.432C31,33.746,30.746,34,30.432,34H30v2c0,0.553-0.447,1-1,1
		s-1-0.447-1-1v-2h-0.432C27.254,34,27,33.746,27,33.432v-1.864C27,31.254,27.254,31,27.568,31h2.864C30.746,31,31,31.254,31,31.568
		V33.432z"/>
</g>
<g>
</g>
<g>
</g>
<g>
</g>
<g>
</g>
<g>
</g>
<g>
</g>
<g>
</g>
<g>
</g>
<g>
</g>
<g>
</g>
<g>
</g>
<g>
</g>
<g>
</g>
<g>
</g>
<g>
</g>
</svg>
